<svg xmlns="http://www.w3.org/2000/svg" width="16" height="16" viewBox="0 0 16 16">
  <path fill-rule="evenodd" d="M5.264,10.2433234 C5.6840021,10.5756693 6.13699757,10.8456963 6.623,11.0534125 C7.10900243,11.2611286 7.56799784,11.3649852 8,11.3649852 C8.46800234,11.3649852 8.80699895,11.2937693 9.017,11.1513353 C9.22700105,11.0089014 9.332,10.807123 9.332,10.5459941 C9.332,10.4035601 9.29600036,10.2848669 9.224,10.189911 C9.15199964,10.094955 9.04700069,10.0059351 8.909,9.92284866 C8.77099931,9.8397622 8.60600096,9.7596443 8.414,9.68249258 C8.22199904,9.60534086 8.00000126,9.51928831 7.748,9.42433234 L6.29,8.8189911 C5.97799844,8.70029614 5.67800144,8.54302769 5.39,8.34718101 C5.10199856,8.15133433 4.85000108,7.91988264 4.634,7.65281899 C4.41799892,7.38575534 4.24700063,7.08012042 4.121,6.73590504 C3.99499937,6.39168967 3.932,6.01187151 3.932,5.59643917 C3.932,5.09792036 4.03999892,4.63204964 4.256,4.19881306 C4.47200108,3.76557647 4.77199808,3.38575831 5.156,3.05934718 C5.54000192,2.73293605 5.99899733,2.4747784 6.533,2.28486647 C7.06700267,2.09495454 7.65199682,2 8.288,2 C8.96000336,2 9.64099655,2.12462783 10.331,2.37388724 C11.0210035,2.62314665 11.6359973,3.01483412 12.176,3.54896142 L10.628,5.47181009 C10.231998,5.19881169 9.85100183,4.99109864 9.485,4.84866469 C9.11899817,4.70623074 8.72000216,4.63501484 8.288,4.63501484 C7.90399808,4.63501484 7.60400108,4.70029608 7.388,4.83086053 C7.17199892,4.96142499 7.064,5.15726872 7.064,5.41839763 C7.064,5.69139602 7.21699847,5.90207641 7.523,6.0504451 C7.82900153,6.1988138 8.2519973,6.37388623 8.792,6.57566766 L10.214,7.12759644 C10.9460037,7.41246433 11.509998,7.81008647 11.906,8.32047478 C12.302002,8.83086309 12.5,9.48961021 12.5,10.2967359 C12.5,10.7833852 12.398001,11.2522233 12.194,11.7032641 C11.989999,12.1543049 11.6930019,12.5489597 11.303,12.8872404 C10.912998,13.225521 10.4360028,13.495548 9.872,13.6973294 C9.30799718,13.8991108 8.66000366,14 7.928,14 C7.18399628,14 6.41900393,13.8664702 5.633,13.5994065 C4.84699607,13.3323429 4.13600318,12.9139494 3.5,12.3442136 L5.264,10.2433234 Z"/>
</svg>
